<?xml version="1.0" standalone="no"?>
<!DOCTYPE svg PUBLIC "-//W3C//DTD SVG 20010904//EN"
 "http://www.w3.org/TR/2001/REC-SVG-20010904/DTD/svg10.dtd">
<svg version="1.0" xmlns="http://www.w3.org/2000/svg"
 width="512.000000pt" height="512.000000pt" viewBox="0 0 512.000000 512.000000"
 preserveAspectRatio="xMidYMid meet">

<g transform="translate(0.000000,512.000000) scale(0.100000,-0.100000)"
fill="#000000" stroke="none">
<path d="M1355 4955 l-47 -54 47 -53 c86 -98 165 -298 165 -418 l0 -30 80 0
80 0 0 33 c0 104 -42 253 -102 367 -45 85 -142 210 -163 210 -7 0 -35 -25 -60
-55z"/>
<path d="M3950 4934 c-114 -143 -190 -343 -190 -501 l0 -33 80 0 80 0 0 29 c0
123 77 319 165 418 l47 53 -47 55 c-26 30 -54 55 -61 55 -8 0 -41 -34 -74 -76z"/>
<path d="M2610 4711 c-85 -28 -152 -84 -179 -149 -15 -37 -13 -36 -66 -17 -97
35 -203 8 -281 -69 -64 -65 -84 -122 -84 -243 0 -63 -3 -83 -14 -83 -7 0 -45
-16 -83 -35 -86 -43 -144 -103 -186 -193 l-32 -67 0 -430 c0 -423 0 -431 23
-505 40 -127 88 -206 182 -301 47 -47 109 -99 137 -115 l53 -29 0 -437 0 -438
-217 0 -217 0 -241 -240 -241 -240 -316 0 -316 0 -213 -171 c-118 -93 -220
-178 -226 -186 -10 -13 -13 -94 -13 -325 l0 -309 25 -24 24 -25 2431 0 2431 0
24 25 25 24 0 1031 0 1031 -25 24 -24 25 -816 0 -815 0 0 118 0 117 48 25 c26
13 88 65 137 115 98 97 143 171 186 300 23 70 24 74 27 653 4 679 6 660 -82
747 -78 78 -184 105 -281 70 -53 -19 -49 -21 -70 26 -52 113 -209 177 -330
134 -53 -19 -51 -20 -66 17 -35 85 -132 148 -234 154 -33 2 -71 0 -85 -5z
m154 -190 l31 -31 0 -490 0 -490 -33 -32 c-28 -28 -39 -33 -82 -33 -42 0 -54
5 -82 32 -27 27 -32 41 -36 92 -4 57 -3 60 24 74 39 20 77 63 103 115 61 120
24 268 -85 345 l-45 32 3 177 c3 172 4 177 28 203 33 36 57 46 104 41 27 -3
49 -14 70 -35z m-400 -160 c29 -29 31 -37 35 -116 l3 -85 -122 0 -122 0 3 84
c4 73 7 88 29 111 33 36 57 46 104 41 27 -3 49 -14 70 -35z m800 0 l31 -31 0
-410 0 -410 -33 -32 c-28 -28 -39 -33 -82 -33 -43 0 -54 5 -82 33 l-33 32 0
409 0 409 25 27 c33 36 57 46 104 41 27 -3 49 -14 70 -35z m400 -160 l31 -31
0 -330 0 -330 -33 -32 c-28 -28 -39 -33 -82 -33 -43 0 -54 5 -82 33 l-33 32 0
329 0 329 25 27 c33 36 57 46 104 41 27 -3 49 -14 70 -35z m-1042 -239 c28
-28 33 -39 33 -82 0 -43 -5 -54 -33 -82 l-32 -33 -186 -5 c-180 -5 -186 -6
-205 -29 -18 -22 -19 -42 -19 -293 0 -267 0 -269 23 -292 17 -17 39 -24 91
-29 85 -8 177 -49 240 -107 56 -52 112 -160 121 -235 l7 -55 80 0 81 0 -7 61
c-8 72 -41 166 -80 234 -65 111 -207 213 -346 249 l-55 15 40 0 c58 1 114 19
164 53 38 25 45 27 60 15 95 -84 268 -83 364 1 15 14 19 14 35 0 95 -84 268
-85 364 -1 15 13 20 12 52 -12 67 -51 172 -68 249 -41 l37 14 0 -122 c0 -66
-7 -151 -15 -189 -32 -150 -144 -297 -283 -370 -39 -21 -78 -48 -87 -60 -12
-17 -15 -53 -15 -174 l0 -153 -54 0 -53 0 -401 -320 c-296 -237 -406 -320
-426 -320 l-26 0 0 473 c0 408 -2 476 -15 494 -9 12 -48 39 -87 60 -140 73
-251 219 -283 370 -19 90 -21 774 -3 837 15 51 99 137 148 153 23 7 116 11
262 10 l228 -2 32 -33z m-125 -408 c-7 -65 -49 -107 -109 -108 l-43 -1 -3 78
-3 77 82 0 82 0 -6 -46z m2003 -1642 l0 -168 -177 -34 c-134 -26 -183 -40
-198 -55 -13 -13 -32 -67 -54 -157 l-33 -138 -179 0 -179 0 -152 -76 -152 -76
-158 63 -158 62 0 149 c0 186 0 186 -140 212 -52 10 -101 20 -109 22 -7 2 85
83 210 184 l224 179 628 1 627 0 0 -168z m480 -752 l0 -920 -1058 0 -1059 0
-153 231 c-85 127 -162 235 -171 240 -10 5 -148 9 -308 9 l-291 0 0 175 c0
240 17 225 -247 225 l-198 0 160 160 160 160 316 0 316 0 94 75 c52 41 99 73
104 71 6 -1 65 -14 133 -27 l122 -23 0 -142 c0 -121 3 -145 18 -162 17 -21
431 -192 464 -192 10 0 90 36 178 80 l160 80 205 0 c255 0 236 -12 284 185 18
77 35 141 36 143 1 1 87 20 191 41 154 32 192 43 206 61 16 20 18 46 18 236
l0 214 160 0 160 0 0 -920z m-3200 -375 c0 -173 0 -176 25 -200 l24 -25 314 0
314 0 106 -160 107 -160 -1165 0 -1165 0 1 223 0 222 172 137 172 137 548 1
547 0 0 -175z"/>
<path d="M720 4400 l0 -80 29 0 c73 0 190 -32 278 -75 73 -36 112 -64 183
-132 l90 -86 49 44 c27 24 52 50 55 58 8 17 -70 100 -156 167 -138 107 -343
184 -495 184 l-33 0 0 -80z"/>
<path d="M4565 4465 c-142 -27 -264 -83 -376 -173 -102 -82 -161 -145 -153
-163 3 -8 28 -34 55 -58 l49 -44 90 86 c71 68 110 96 183 132 88 43 205 75
278 75 l29 0 0 80 0 80 -42 -1 c-24 0 -74 -7 -113 -14z"/>
<path d="M1237 3750 c-87 -15 -190 -51 -275 -96 -84 -44 -212 -138 -212 -155
0 -8 97 -109 106 -109 2 0 31 22 65 49 70 57 177 111 264 136 36 10 116 19
198 22 l137 6 0 78 0 79 -117 -1 c-65 -1 -140 -5 -166 -9z"/>
<path d="M3920 3683 l0 -80 138 -6 c81 -3 161 -12 197 -22 87 -25 194 -79 264
-136 34 -27 63 -49 65 -49 9 0 106 101 106 110 0 17 -145 122 -222 161 -132
66 -231 90 -400 96 l-148 6 0 -80z"/>
<path d="M4073 2945 c-110 -73 -144 -101 -149 -122 -8 -31 77 -303 100 -322
20 -17 276 -101 305 -101 18 0 52 28 128 103 85 85 103 108 103 133 0 24 -30
71 -130 205 -72 96 -138 180 -147 187 -34 25 -68 12 -210 -83z m226 -196 l74
-100 -37 -38 -38 -39 -77 26 -78 25 -22 70 c-15 44 -19 73 -13 79 13 13 106
77 112 77 3 0 38 -45 79 -100z"/>
<path d="M233 2705 c-110 -73 -144 -101 -149 -122 -8 -31 77 -303 100 -322 20
-17 276 -101 305 -101 18 0 52 28 128 103 85 85 103 108 103 133 0 24 -30 71
-130 205 -72 96 -138 180 -147 187 -34 25 -68 12 -210 -83z m226 -196 l74
-100 -37 -38 -38 -39 -77 26 -78 25 -22 70 c-15 44 -19 73 -13 79 13 13 106
77 112 77 3 0 38 -45 79 -100z"/>
<path d="M1273 2545 c-110 -73 -144 -101 -149 -122 -8 -31 77 -303 100 -322
20 -17 276 -101 305 -101 18 0 52 28 128 103 85 85 103 108 103 133 0 24 -30
71 -130 205 -72 96 -138 180 -147 187 -34 25 -68 12 -210 -83z m226 -196 l74
-100 -37 -38 -38 -39 -77 26 -78 25 -22 70 c-15 44 -19 73 -13 79 13 13 106
77 112 77 3 0 38 -45 79 -100z"/>
<path d="M793 1825 c-110 -73 -144 -101 -149 -122 -8 -31 77 -303 100 -322 20
-17 276 -101 305 -101 18 0 52 28 128 103 85 85 103 108 103 133 0 24 -30 71
-130 205 -72 96 -138 180 -147 187 -34 25 -68 12 -210 -83z m226 -196 l74
-100 -37 -38 -38 -39 -77 26 -78 25 -22 70 c-15 44 -19 73 -13 79 13 13 106
77 112 77 3 0 38 -45 79 -100z"/>
</g>
</svg>
