<?xml version="1.0" standalone="no"?>
<!DOCTYPE svg PUBLIC "-//W3C//DTD SVG 20010904//EN"
 "http://www.w3.org/TR/2001/REC-SVG-20010904/DTD/svg10.dtd">
<svg version="1.0" xmlns="http://www.w3.org/2000/svg"
 width="512.000000pt" height="512.000000pt" viewBox="0 0 512.000000 512.000000"
 preserveAspectRatio="xMidYMid meet">

<g transform="translate(0.000000,512.000000) scale(0.100000,-0.100000)"
fill="#000000" stroke="none">
<path d="M2312 5099 c-28 -14 -51 -36 -67 -64 -22 -37 -25 -53 -25 -148 l0
-107 -1017 -2 c-971 -3 -1020 -4 -1053 -22 -49 -26 -98 -74 -123 -121 l-22
-40 0 -1780 0 -1780 22 -41 c12 -22 39 -56 59 -74 77 -67 54 -64 651 -70 l542
-5 -200 -310 -201 -310 4 -60 c5 -74 33 -119 92 -146 36 -16 68 -19 246 -19
117 0 222 5 244 11 88 24 102 42 372 450 l256 389 64 0 64 0 0 -362 0 -361 25
-43 c16 -28 39 -49 68 -63 40 -19 61 -21 249 -21 195 0 207 1 248 23 30 16 51
37 67 67 23 43 23 47 23 402 l0 358 64 0 64 0 241 -367 c133 -203 256 -384
274 -403 64 -69 86 -75 331 -78 250 -4 286 3 333 65 21 27 28 49 31 97 l4 61
-201 310 -201 310 543 5 c597 6 574 3 651 70 20 18 47 52 59 74 l22 41 0 1780
c0 1717 -1 1781 -19 1815 -26 49 -74 98 -121 123 l-40 22 -1017 3 -1018 2 0
104 c0 127 -21 177 -90 213 -41 22 -53 23 -249 23 -190 0 -209 -2 -249 -21z
m418 -234 l0 -85 -170 0 -170 0 0 85 0 85 170 0 170 0 0 -85z m2191 -284 l29
-29 0 -1737 0 -1736 -24 -24 c-13 -13 -39 -26 -57 -30 -19 -3 -1073 -4 -2342
-3 l-2309 3 -24 28 -24 28 0 1735 0 1736 29 29 29 29 2332 0 2332 0 29 -29z
m-3041 -3738 c-2 -19 -418 -638 -440 -655 -23 -17 -43 -18 -208 -16 l-183 3
218 337 218 338 198 0 c108 0 197 -3 197 -7z m850 -333 l0 -340 -170 0 -170 0
0 340 0 340 170 0 170 0 0 -340z m1123 2 l218 -337 -183 -3 c-164 -2 -185 -1
-207 16 -22 16 -439 636 -440 655 -1 4 88 7 197 7 l197 0 218 -338z"/>
<path d="M3908 4202 c-142 -142 -148 -149 -148 -188 0 -51 31 -84 80 -84 29 0
45 11 103 68 l68 67 -3 -320 c-3 -306 -4 -322 -25 -360 -28 -52 -78 -99 -128
-122 -35 -16 -81 -19 -380 -23 l-340 -5 -67 -32 c-94 -44 -160 -109 -206 -202
l-37 -75 -5 -295 c-5 -253 -8 -302 -23 -335 -28 -63 -61 -99 -118 -131 l-54
-30 -332 -3 -332 -3 -6 28 c-37 181 -96 300 -201 412 -129 137 -288 218 -477
241 -105 13 -210 1 -326 -35 -198 -63 -383 -235 -464 -431 -45 -110 -52 -152
-51 -304 0 -129 3 -154 27 -225 54 -163 173 -319 312 -410 128 -84 316 -133
468 -122 112 8 186 29 292 82 111 55 197 123 264 212 81 107 118 191 155 356
l6 27 309 0 c169 0 332 5 362 10 181 34 320 176 349 356 6 33 10 169 10 304 0
236 1 247 24 295 26 56 70 98 131 126 36 17 71 19 336 19 163 0 321 5 350 10
132 25 251 119 312 247 l32 68 5 333 5 333 65 -66 c56 -56 69 -65 100 -65 37
0 70 25 83 63 13 35 -22 84 -160 220 -188 185 -168 185 -365 -11z m-2564
-1578 c157 -38 310 -161 379 -304 54 -111 70 -187 65 -300 -12 -220 -132 -407
-322 -501 -134 -65 -256 -82 -390 -54 -266 56 -459 278 -474 542 -6 118 9 197
59 300 123 257 401 386 683 317z"/>
<path d="M1135 2445 c-25 -24 -25 -25 -25 -224 0 -196 0 -200 24 -227 33 -39
89 -39 122 0 24 27 24 31 24 227 0 199 0 200 -25 224 -16 17 -35 25 -60 25
-25 0 -44 -8 -60 -25z"/>
<path d="M1135 1765 c-35 -34 -33 -78 4 -116 38 -38 74 -38 112 0 56 57 23
141 -56 141 -25 0 -44 -8 -60 -25z"/>
<path d="M2589 4151 c-46 -46 -39 -72 37 -152 l67 -68 -61 -66 c-34 -36 -65
-77 -68 -90 -15 -59 43 -115 102 -101 15 4 55 35 90 68 l64 61 69 -66 c39 -38
78 -67 90 -67 33 0 68 20 80 47 22 48 13 70 -53 140 l-64 68 64 68 c52 55 64
73 64 100 0 55 -58 99 -108 82 -11 -3 -48 -33 -81 -67 l-60 -61 -71 66 c-83
79 -113 86 -161 38z"/>
<path d="M1645 3378 c-39 -46 -29 -79 47 -155 l62 -62 -62 -64 c-33 -35 -64
-77 -68 -92 -14 -56 45 -115 101 -101 15 4 57 35 92 68 l64 62 62 -62 c76 -76
109 -86 155 -47 25 21 32 35 32 62 0 29 -10 45 -64 101 l-64 67 64 68 c54 57
64 73 64 103 0 47 -37 84 -84 84 -30 0 -46 -10 -103 -64 l-68 -64 -67 64 c-56
54 -72 64 -101 64 -27 0 -41 -7 -62 -32z"/>
<path d="M3523 2809 c-110 -21 -204 -95 -251 -197 -21 -47 -26 -72 -26 -138 0
-72 4 -89 32 -147 52 -104 135 -166 253 -188 155 -28 321 70 375 222 20 59 20
174 -2 230 -62 157 -223 250 -381 218z m156 -196 c47 -35 71 -81 71 -137 0
-82 -48 -145 -125 -165 -166 -42 -282 162 -160 283 55 56 152 64 214 19z"/>
<path d="M4216 2708 c-15 -13 -29 -38 -32 -55 -6 -30 -1 -38 60 -101 36 -38
66 -72 66 -77 0 -5 -29 -39 -65 -76 -68 -71 -75 -90 -50 -138 16 -32 33 -41
77 -41 23 0 45 14 99 67 l69 66 69 -66 c55 -54 75 -67 100 -67 45 0 81 38 81
86 0 31 -9 45 -64 103 l-65 66 65 67 c50 51 64 72 64 96 0 44 -9 61 -41 77
-48 26 -67 18 -140 -52 l-70 -67 -57 56 c-87 85 -121 96 -166 56z"/>
<path d="M3384 1870 c-30 -12 -54 -49 -54 -83 0 -22 16 -45 67 -98 l67 -70
-67 -67 c-57 -58 -67 -73 -67 -103 0 -62 69 -102 125 -71 11 6 44 36 74 66
l55 56 67 -65 c52 -51 74 -65 97 -65 44 0 61 9 77 41 26 48 18 67 -52 140
l-66 69 66 69 c76 78 84 110 43 157 -18 21 -32 28 -60 28 -32 0 -45 -9 -104
-67 l-67 -67 -65 64 c-67 66 -99 82 -136 66z"/>
</g>
</svg>
