<?xml version="1.0" standalone="no"?>
<!DOCTYPE svg PUBLIC "-//W3C//DTD SVG 20010904//EN"
 "http://www.w3.org/TR/2001/REC-SVG-20010904/DTD/svg10.dtd">
<svg version="1.0" xmlns="http://www.w3.org/2000/svg"
 width="512.000000pt" height="512.000000pt" viewBox="0 0 512.000000 512.000000"
 preserveAspectRatio="xMidYMid meet">

<g transform="translate(0.000000,512.000000) scale(0.100000,-0.100000)"
fill="#000000" stroke="none">
<path d="M3687 5029 c-510 -74 -907 -467 -993 -980 -20 -122 -15 -314 11 -429
l17 -76 -146 -247 c-97 -163 -146 -256 -146 -275 0 -17 10 -38 25 -52 28 -26
22 -27 389 14 l209 22 46 -40 c302 -262 756 -342 1149 -205 469 165 782 610
782 1114 0 568 -421 1057 -990 1150 -102 16 -258 18 -353 4z m301 -154 c35 -4
101 -17 145 -30 354 -103 620 -375 713 -731 36 -135 38 -335 6 -467 -96 -390
-362 -663 -750 -769 -64 -18 -106 -21 -247 -22 -198 -1 -277 16 -432 89 -103
48 -159 85 -250 162 -74 63 -71 63 -328 33 -93 -11 -175 -20 -182 -20 -6 0 36
80 94 178 143 240 136 218 106 332 -21 79 -25 118 -25 230 -1 149 12 225 62
361 131 362 466 621 854 658 80 8 107 8 234 -4z"/>
<path d="M4235 4499 c-11 -6 -158 -151 -327 -323 l-306 -311 -114 111 c-62 62
-123 115 -135 119 -35 10 -70 -15 -189 -137 -122 -123 -138 -145 -129 -181 4
-13 124 -142 269 -285 311 -311 288 -300 398 -194 39 37 250 250 469 474 332
338 399 411 399 434 0 22 -26 54 -132 160 -134 134 -165 154 -203 133z m-105
-548 c-137 -141 -312 -319 -389 -396 l-141 -140 -190 190 -190 190 57 57 57
58 117 -115 c101 -101 120 -115 150 -115 32 -1 56 22 349 319 l315 321 57 -57
57 -56 -249 -256z"/>
<path d="M1380 4616 c-77 -22 -152 -66 -211 -125 -66 -66 -103 -134 -125 -228
-51 -215 79 -479 284 -581 72 -35 81 -37 172 -37 88 0 101 3 164 34 130 64
241 206 280 357 32 123 13 269 -47 368 -35 56 -121 139 -176 169 -97 54 -239
71 -341 43z m246 -171 c129 -57 201 -199 174 -339 -34 -175 -164 -310 -299
-309 -72 0 -119 21 -180 78 -160 150 -175 388 -33 517 50 45 67 54 134 73 65
18 136 11 204 -20z"/>
<path d="M1070 3365 c-176 -43 -336 -170 -413 -329 -20 -39 -38 -79 -41 -88
-5 -16 -20 -18 -124 -18 -107 0 -122 -2 -152 -22 -64 -44 -70 -69 -70 -295 l0
-201 -33 -11 c-48 -16 -102 -65 -126 -114 -28 -57 -28 -144 -1 -196 23 -47 92
-108 130 -116 l28 -6 4 -102 c3 -88 6 -106 27 -136 42 -58 59 -61 380 -61
l290 0 3 -683 3 -682 27 -51 c91 -172 307 -218 463 -98 l34 26 42 -35 c51 -44
115 -67 188 -67 85 0 147 26 212 90 94 93 89 47 89 857 l0 703 28 6 c93 23
201 110 250 202 50 94 54 139 50 557 l-3 380 -31 85 c-73 204 -228 349 -430
400 -70 18 -110 20 -423 19 -253 0 -361 -4 -401 -14z m761 -149 c90 -19 162
-58 229 -122 63 -60 100 -121 124 -205 14 -49 16 -111 14 -452 l-3 -395 -30
-43 c-30 -42 -107 -109 -126 -109 -5 0 -9 170 -9 419 0 394 -1 420 -19 442
-23 28 -83 32 -109 6 -16 -17 -17 -96 -22 -1222 -5 -1196 -5 -1204 -26 -1231
-37 -50 -70 -68 -124 -68 -54 0 -87 18 -124 68 -21 27 -21 39 -26 809 -3 430
-6 783 -8 785 -1 2 -18 10 -37 17 -40 17 -75 8 -99 -27 -14 -20 -16 -101 -16
-776 0 -834 3 -797 -64 -845 -22 -16 -45 -22 -83 -22 -56 0 -90 18 -127 69
-21 27 -21 36 -21 689 l0 662 47 5 c56 7 96 34 120 81 16 31 18 75 18 484 l0
449 -123 123 -123 123 -142 0 c-78 0 -142 4 -142 8 0 21 81 131 125 170 57 50
150 97 220 110 83 16 629 14 706 -2z m-753 -519 l82 -83 -2 -394 -3 -395 -362
-3 -363 -2 0 74 0 74 33 6 c77 14 157 124 157 216 -1 88 -61 173 -145 205
l-45 18 0 183 0 184 283 0 282 0 83 -83z m-653 -449 c40 -18 49 -75 18 -110
-13 -14 -32 -18 -89 -18 -62 0 -76 3 -94 22 -27 29 -25 64 5 93 20 21 34 25
79 25 30 0 67 -5 81 -12z"/>
<path d="M2823 2560 c-40 -16 -43 -38 -43 -315 l0 -266 25 -24 24 -25 264 0
c252 0 266 1 291 21 l26 20 0 275 0 275 -25 24 -24 25 -258 -1 c-142 0 -268
-4 -280 -9z m437 -310 l0 -160 -165 0 -165 0 0 160 0 160 165 0 165 0 0 -160z"/>
<path d="M4190 2345 c-107 -107 -200 -195 -205 -195 -5 0 -42 32 -82 72 -58
58 -78 71 -103 71 -41 0 -73 -32 -73 -73 0 -27 17 -49 114 -146 161 -162 127
-172 422 124 254 255 259 262 216 316 -15 19 -29 26 -57 26 -33 0 -50 -14
-232 -195z"/>
<path d="M2802 1697 c-21 -23 -22 -30 -22 -295 0 -259 1 -273 20 -292 19 -19
33 -20 295 -20 262 0 276 1 295 20 19 19 20 33 20 293 0 273 0 274 -23 295
-23 21 -30 22 -293 22 -270 0 -271 0 -292 -23z m458 -292 l0 -165 -165 0 -165
0 0 165 0 165 165 0 165 0 0 -165z"/>
<path d="M4193 1498 l-203 -202 -79 77 c-78 76 -101 88 -146 71 -23 -9 -46
-60 -39 -88 3 -13 56 -74 118 -135 98 -96 117 -111 146 -111 30 0 56 22 257
223 124 122 231 234 239 249 20 39 17 66 -11 93 -49 50 -61 43 -282 -177z"/>
<path d="M2823 870 c-40 -17 -43 -38 -43 -319 l0 -270 26 -20 c25 -20 39 -21
289 -21 250 0 264 1 289 21 l26 20 0 274 c0 254 -1 274 -19 296 l-19 24 -264
2 c-144 1 -273 -2 -285 -7z m437 -310 l0 -160 -165 0 -165 0 0 160 0 160 165
0 165 0 0 -160z"/>
<path d="M3842 860 c-26 -11 -46 -55 -38 -85 3 -11 48 -63 100 -115 l96 -94
-100 -102 c-108 -109 -117 -129 -79 -178 15 -19 29 -26 56 -26 32 0 47 11 134
97 l99 97 99 -97 c86 -85 102 -97 133 -97 42 0 78 34 78 75 0 22 -20 48 -95
124 -52 54 -95 99 -95 102 0 3 43 48 95 100 81 81 95 100 95 128 0 40 -38 81
-76 81 -21 0 -51 -23 -128 -100 l-102 -100 -59 61 c-78 80 -153 139 -173 138
-10 0 -27 -4 -40 -9z"/>
</g>
</svg>
