<?xml version="1.0" standalone="no"?>
<!DOCTYPE svg PUBLIC "-//W3C//DTD SVG 20010904//EN"
 "http://www.w3.org/TR/2001/REC-SVG-20010904/DTD/svg10.dtd">
<svg version="1.0" xmlns="http://www.w3.org/2000/svg"
 width="512.000000pt" height="512.000000pt" viewBox="0 0 512.000000 512.000000"
 preserveAspectRatio="xMidYMid meet">

<g transform="translate(0.000000,512.000000) scale(0.100000,-0.100000)"
fill="#000000" stroke="none">
<path d="M25 5095 l-25 -24 0 -2511 0 -2511 25 -25 24 -24 2423 2 2423 3 53
24 c69 31 137 106 157 174 23 76 23 2178 0 2254 -20 67 -81 135 -153 169 -49
24 -72 28 -174 32 l-118 4 0 39 c0 69 -39 132 -102 165 -40 21 -219 19 -265
-2 -50 -24 -82 -73 -95 -143 l-12 -61 -198 0 -198 0 0 38 c-1 77 -63 162 -130
177 l-30 7 0 1094 0 1095 -25 24 -24 25 -1766 0 -1766 0 -24 -25z m3445 -1173
l0 -1038 -40 -18 c-67 -29 -110 -99 -110 -178 l0 -28 -199 0 -198 0 -6 49 c-8
65 -28 103 -74 138 -33 26 -45 28 -140 31 -57 2 -115 1 -128 -2 -62 -16 -124
-104 -125 -177 l0 -36 -92 -5 c-116 -6 -180 -32 -241 -97 -83 -89 -78 5 -75
-1246 2 -611 7 -1120 12 -1132 l8 -23 -951 0 -951 0 0 2400 0 2400 1655 0
1655 0 0 -1038z m-712 -1357 c4 -205 7 -197 -76 -193 l-67 3 -3 173 -2 173 72
-3 73 -3 3 -150z m867 -20 l0 -170 -70 0 -70 0 -3 160 c-1 87 0 165 3 173 3 9
23 12 72 10 l68 -3 0 -170z m873 3 l-3 -173 -58 -3 c-35 -2 -64 2 -73 9 -11 9
-14 45 -14 169 0 86 3 160 7 163 3 4 37 7 75 7 l68 0 -2 -172z m-2046 -132 c4
-70 9 -91 30 -124 35 -53 86 -75 178 -80 99 -5 155 11 201 57 42 42 59 91 59
174 l0 57 200 0 200 0 0 -57 c0 -160 74 -233 235 -232 95 1 135 13 180 58 41
40 55 83 55 169 l0 62 199 0 198 0 6 -80 c7 -89 22 -126 67 -164 43 -36 101
-49 197 -44 67 4 89 9 121 31 56 37 82 95 82 185 l0 72 90 0 c100 0 141 -12
180 -54 24 -27 25 -32 28 -197 l3 -169 -1380 0 -1381 0 0 165 c0 139 3 170 17
192 26 39 87 63 164 63 l66 0 5 -84z m2508 -1327 c0 -817 0 -832 -20 -864 -43
-69 38 -65 -1366 -65 -1374 0 -1307 -3 -1352 55 l-22 28 0 838 0 839 1380 0
1380 0 0 -831z"/>
<path d="M534 4618 c-12 -5 -27 -21 -33 -34 -16 -36 -15 -897 1 -927 25 -47
16 -46 536 -47 l493 0 24 25 25 24 0 250 0 250 75 67 c42 37 78 78 81 91 14
56 -45 114 -98 97 -19 -6 -219 -180 -380 -333 l-38 -35 -79 77 c-86 84 -109
92 -155 56 -20 -15 -26 -29 -26 -57 0 -34 10 -47 113 -150 151 -151 136 -152
315 12 l32 30 0 -122 0 -122 -385 0 -385 0 0 350 0 350 440 0 441 0 24 25 c40
40 30 96 -22 123 -29 16 -968 16 -999 0z"/>
<path d="M2066 4609 c-20 -16 -26 -29 -26 -59 0 -30 6 -43 26 -59 26 -21 36
-21 569 -21 533 0 543 0 569 21 37 29 37 89 0 118 -26 21 -36 21 -569 21 -533
0 -543 0 -569 -21z"/>
<path d="M2066 4179 c-20 -16 -26 -29 -26 -59 0 -30 6 -43 26 -59 26 -21 36
-21 569 -21 533 0 543 0 569 21 37 29 37 89 0 118 -26 21 -36 21 -569 21 -533
0 -543 0 -569 -21z"/>
<path d="M534 3058 c-12 -5 -27 -21 -33 -34 -15 -35 -15 -893 0 -927 6 -14 22
-30 36 -36 16 -8 172 -11 498 -11 326 0 482 3 498 11 43 19 47 45 47 299 l0
239 75 67 c42 37 78 78 81 91 13 50 -32 103 -86 103 -11 0 -108 -80 -225 -186
l-206 -187 -78 77 c-86 83 -109 91 -155 55 -20 -15 -26 -29 -26 -57 0 -34 10
-47 113 -150 151 -151 136 -152 315 12 l32 30 0 -122 0 -122 -385 0 -385 0 0
350 0 350 440 0 441 0 24 25 c40 39 32 96 -16 120 -23 13 -105 15 -506 14
-307 0 -486 -4 -499 -11z"/>
<path d="M534 1498 c-12 -5 -27 -21 -33 -34 -15 -35 -15 -893 0 -927 6 -14 22
-30 36 -36 34 -15 962 -15 996 0 43 19 47 45 47 299 l0 239 75 68 c42 37 78
78 82 91 12 49 -33 102 -87 102 -12 0 -107 -79 -225 -186 l-206 -186 -78 76
c-86 83 -109 91 -155 55 -20 -16 -26 -29 -26 -58 0 -34 9 -46 113 -149 153
-150 137 -151 315 12 l32 30 0 -122 0 -122 -385 0 -385 0 0 350 0 350 440 0
441 0 24 25 c16 15 25 36 25 55 0 19 -9 40 -25 55 l-24 25 -488 -1 c-314 0
-496 -4 -509 -11z"/>
<path d="M2590 1673 c-8 -3 -25 -15 -37 -26 -23 -20 -23 -24 -23 -257 0 -234
0 -237 23 -258 23 -21 31 -22 264 -22 l242 0 20 26 c20 25 21 39 21 255 0 226
0 228 -24 256 l-24 28 -224 2 c-122 1 -230 -1 -238 -4z m350 -278 l0 -125
-125 0 -125 0 0 125 0 125 125 0 125 0 0 -125z"/>
<path d="M3334 1666 c-17 -8 -34 -21 -38 -31 -3 -9 -6 -122 -6 -251 0 -221 1
-235 20 -254 19 -19 33 -20 256 -20 134 0 243 4 254 10 10 5 23 24 29 41 12
35 14 416 2 459 -4 15 -21 32 -41 42 -30 15 -64 18 -240 18 -149 -1 -213 -4
-236 -14z m364 -273 l3 -123 -126 0 -125 0 0 125 0 126 123 -3 122 -3 3 -122z"/>
<path d="M4104 1666 c-17 -8 -34 -21 -38 -31 -3 -9 -6 -121 -6 -249 0 -230 0
-233 23 -254 23 -21 31 -22 259 -22 217 0 238 2 259 19 l24 19 0 241 c0 314
27 285 -268 288 -172 2 -229 0 -253 -11z m364 -273 l3 -123 -126 0 -125 0 0
125 0 126 123 -3 122 -3 3 -122z"/>
<path d="M2595 973 c-11 -3 -30 -14 -42 -26 -23 -20 -23 -25 -23 -257 0 -234
0 -237 23 -258 23 -21 31 -22 264 -22 l242 0 20 26 c20 25 21 39 21 255 0 226
0 228 -24 256 l-24 28 -219 2 c-120 1 -227 -1 -238 -4z m340 -283 l0 -125
-122 -3 -123 -3 0 131 0 131 123 -3 122 -3 0 -125z"/>
<path d="M3334 966 c-17 -8 -34 -21 -38 -31 -3 -9 -6 -122 -6 -251 0 -221 1
-235 20 -254 19 -19 33 -20 256 -20 134 0 243 4 254 10 33 18 40 66 40 272 0
227 -7 258 -60 277 -49 17 -426 14 -466 -3z m361 -276 l0 -125 -122 -3 -123
-3 0 131 0 131 123 -3 122 -3 0 -125z"/>
<path d="M4115 970 c-54 -17 -55 -24 -55 -282 0 -225 1 -239 20 -258 19 -19
33 -20 259 -20 220 0 241 1 262 19 l24 19 0 241 c0 314 26 285 -263 288 -119
1 -230 -2 -247 -7z m350 -280 l0 -125 -122 -3 -123 -3 0 131 0 131 123 -3 122
-3 0 -125z"/>
</g>
</svg>
